<?xml version="1.0" encoding="utf-8"?>
<!-- Generator: Adobe Illustrator 23.0.2, SVG Export Plug-In . SVG Version: 6.00 Build 0)  -->
<svg version="1.1" xmlns="http://www.w3.org/2000/svg" xmlns:xlink="http://www.w3.org/1999/xlink" x="0px" y="0px"
	 viewBox="0 0 2000 2000" style="enable-background:new 0 0 2000 2000;" xml:space="preserve">
<style type="text/css">
	.st0{fill:#171B1E;}
	.st1{fill:#383E8E;}
</style>
<g id="Layer_1">
	<g>
		<g>
			<path class="st0" d="M911.71,1188.68c-24.9,0-33.9-9.6-33.9-33.6v-183.9h44.4v174.6c0,3.3,0.6,4.8,4.2,4.8h15.3
				c3.6,0,4.2-1.5,4.2-4.8v-174.6h44.4v183.9c0,24-9,33.6-33.9,33.6H911.71z"/>
			<path class="st0" d="M1136.11,1157.78c0,16.5-6.9,30.9-31.2,30.9h-50.4c-24.3,0-31.2-14.4-31.2-30.9v-158.4
				c0-17.1,9-28.2,29.4-28.2h54c20.4,0,29.4,11.1,29.4,28.2V1157.78z M1071.01,1009.28c-3,0-3.9,1.5-3.9,4.2v132.6
				c0,3.3,0.6,4.5,4.2,4.5h16.5c3.6,0,4.2-1.2,4.2-4.5v-132.6c0-2.7-0.9-4.2-3.9-4.2H1071.01z"/>
			<path class="st0" d="M1169.1,971.18h43.5v217.5h-43.5V971.18z"/>
			<path class="st0" d="M1331.4,971.18l10.8,40.5h-29.1v177h-44.4v-177h-29.1l11.4-40.5H1331.4z"/>
			<path class="st0" d="M1403.1,1188.68c-24.9,0-33.9-9.6-33.9-33.6v-157.2c0-17.1,11.1-26.7,25.5-26.7h57.3l7.5,40.5h-41.7
				c-3,0-3.9,1.5-3.9,4.2v128.1c0,2.7,0.9,4.2,3.9,4.2h41.7l-7.8,40.5H1403.1z"/>
		</g>
	</g>
	<g>
	</g>
	<path class="st1" d="M627.72,609.5h118.73l179.44,230.71L742.4,1074.96H627.72c0,0-26.98,0,0-25.63l160.55-206.42l-161.9-209.12
		C626.37,633.79,604.78,609.5,627.72,609.5z"/>
	<path class="st1" d="M708.67,842.23H589.94L410.5,1072.94l183.49,234.76h114.68c0,0,26.98,0,0-25.63l-160.55-206.42l161.9-209.12
		C710.02,866.52,731.6,842.23,708.67,842.23z"/>
	<g>
		<g>
			<path class="st0" d="M901.79,1223.9h15.25l6.8,48.67h0.19l6.8-48.67h15.25v68h-10.1v-51.48h-0.19l-7.77,51.48h-8.94l-7.77-51.48
				h-0.19v51.48h-9.33V1223.9z"/>
			<path class="st0" d="M953.27,1275.77v-35.75c0-10.88,5.73-17.1,16.22-17.1c10.49,0,16.22,6.22,16.22,17.1v35.75
				c0,10.88-5.73,17.1-16.22,17.1C959.01,1292.87,953.27,1286.65,953.27,1275.77z M975.03,1276.45v-37.11c0-4.86-2.14-6.7-5.54-6.7
				c-3.4,0-5.54,1.85-5.54,6.7v37.11c0,4.86,2.14,6.7,5.54,6.7C972.9,1283.15,975.03,1281.31,975.03,1276.45z"/>
			<path class="st0" d="M992.13,1275.77v-35.75c0-10.88,5.73-17.1,16.22-17.1c10.49,0,16.22,6.22,16.22,17.1v35.75
				c0,10.88-5.73,17.1-16.22,17.1C997.86,1292.87,992.13,1286.65,992.13,1275.77z M1013.89,1276.45v-37.11c0-4.86-2.14-6.7-5.54-6.7
				c-3.4,0-5.54,1.85-5.54,6.7v37.11c0,4.86,2.14,6.7,5.54,6.7C1011.75,1283.15,1013.89,1281.31,1013.89,1276.45z"/>
			<path class="st0" d="M1031.76,1223.9h16.32c10.69,0,15.93,5.92,15.93,16.8v34.39c0,10.88-5.25,16.8-15.93,16.8h-16.32V1223.9z
				 M1047.89,1282.18c3.4,0,5.44-1.75,5.44-6.61v-35.36c0-4.86-2.04-6.61-5.44-6.61h-5.44v48.57H1047.89z"/>
			<path class="st0" d="M1071.2,1223.9h10.69v58.28h17.58v9.71h-28.27V1223.9z"/>
			<path class="st0" d="M1104.62,1223.9h29.14v9.71h-18.46v17.97h14.67v9.71h-14.67v20.88h18.46v9.71h-29.14V1223.9z"/>
			<path class="st0" d="M1138.32,1253.04h21.37v9.71h-21.37V1253.04z"/>
			<path class="st0" d="M1166.1,1223.9h10.69v58.28h17.58v9.71h-28.27V1223.9z"/>
			<path class="st0" d="M1199.52,1223.9h29.14v9.71h-18.46v17.97h14.67v9.71h-14.67v20.88h18.46v9.71h-29.14V1223.9z"/>
			<path class="st0" d="M1243.04,1223.9h14.47l11.07,68h-10.68l-1.94-13.5v0.19h-12.14l-1.94,13.31h-9.91L1243.04,1223.9z
				 M1254.69,1269.36l-4.76-33.61h-0.19l-4.66,33.61H1254.69z"/>
			<path class="st0" d="M1273.73,1223.9h15.83c11.07,0,15.83,5.15,15.83,15.64v4.18c0,6.99-2.23,11.46-6.99,13.41v0.19
				c5.34,1.65,7.09,6.7,7.09,14.38v11.95c0,3.3,0.1,5.73,1.17,8.26h-10.88c-0.58-1.75-0.97-2.82-0.97-8.35v-12.43
				c0-6.31-1.85-8.35-6.7-8.35h-3.69v29.14h-10.69V1223.9z M1288.3,1253.04c3.98,0,6.41-1.75,6.41-7.19v-5.25
				c0-4.86-1.65-6.99-5.44-6.99h-4.86v19.43H1288.3z"/>
			<path class="st0" d="M1312.88,1223.9h13.41l10.39,40.7h0.19v-40.7h9.52v68h-10.98l-12.82-49.64h-0.19v49.64h-9.52V1223.9z"/>
			<path class="st0" d="M1354.36,1223.9h10.69v68h-10.69V1223.9z"/>
			<path class="st0" d="M1373.01,1223.9h13.41l10.39,40.7h0.19v-40.7h9.52v68h-10.98l-12.82-49.64h-0.19v49.64h-9.52V1223.9z"/>
			<path class="st0" d="M1413.71,1275.77v-35.75c0-10.88,5.44-17.1,15.93-17.1c10.49,0,15.93,6.22,15.93,17.1v5.83h-10.1v-6.51
				c0-4.86-2.14-6.7-5.54-6.7c-3.4,0-5.54,1.85-5.54,6.7v37.2c0,4.86,2.14,6.61,5.54,6.61c3.4,0,5.54-1.75,5.54-6.61v-13.31h-5.34
				v-9.71h15.44v22.24c0,10.88-5.44,17.1-15.93,17.1C1419.15,1292.87,1413.71,1286.65,1413.71,1275.77z"/>
		</g>
	</g>
</g>
<g id="Layer_3">
</g>
<g id="Layer_2">
</g>
</svg>
